# xmcd
#
# Track frame offsets: 
#        150
#        18636
#        35015
#        51347
#        70113
#        86067
#        108625
#        126276
#        144309
#        161978
#        180625
#        200983
#        219708
#        237727
#
# Disc length: 3493 seconds
#
# Revision: 0
# Processed by: cddbd v1.5.2PL0 Copyright (c) Steve Scherf et al.
# Submitted via: ExactAudioCopy v0.99pb4
#
DISCID=e20da30e
DTITLE=meimei - bupabupa
DYEAR=1900
DGENRE=Pop
TTITLE0=k01
TTITLE1=k02
TTITLE2=²»ÅÂ²»ÅÂ
TTITLE3=ck04
TTITLE4=ack05
TTITLE5=k06
TTITLE6=Tra07
TTITLE7=ck08
TTITLE8=9
TTITLE9=ack10
TTITLE10=ack11
TTITLE11=k12
TTITLE12=Tck13
TTITLE13=ck14
EXTD=
EXTT0=
EXTT1=
EXTT2=
EXTT3=
EXTT4=
EXTT5=
EXTT6=
EXTT7=
EXTT8=
EXTT9=
EXTT10=
EXTT11=
EXTT12=
EXTT13=
PLAYORDER=
